HIERARCHY
ROOT hip
{
  OFFSET 0 0 0
  CHANNELS 6 Xposition Yposition Zposition Zrotation Yrotation Xrotation
  JOINT abdomen
  {
    OFFSET 0 20.6881 -0.73152
    CHANNELS 3 Zrotation Xrotation Yrotation
    JOINT chest
    {
      OFFSET 0 11.7043 -0.48768
      CHANNELS 3 Zrotation Xrotation Yrotation
      JOINT neck
      {
        OFFSET 0 22.1894 -2.19456
        CHANNELS 3 Zrotation Xrotation Yrotation
        JOINT head
        {
          OFFSET -0.24384 7.07133 1.2192
          CHANNELS 3 Zrotation Xrotation Yrotation
          JOINT leftEye
          {
            OFFSET 4.14528 8.04674 8.04672
            CHANNELS 3 Zrotation Xrotation Yrotation
            End Site
            {
              OFFSET 1 0 0
            }
          }
          JOINT rightEye
          {
            OFFSET -3.6576 8.04674 8.04672
            CHANNELS 3 Zrotation Xrotation Yrotation
            End Site
            {
              OFFSET 1 0 0
            }
          }
        }
      }
      JOINT rCollar
      {
        OFFSET -2.68224 19.2634 -4.8768
        CHANNELS 3 Zrotation Xrotation Yrotation
        JOINT rShldr
        {
          OFFSET -8.77824 -1.95073 1.46304
          CHANNELS 3 Zrotation Xrotation Yrotation
          JOINT rForeArm
          {
            OFFSET -28.1742 -1.7115 0.48768
            CHANNELS 3 Zrotation Xrotation Yrotation
            JOINT rHand
            {
              OFFSET -22.5879 0.773209 7.07136
              CHANNELS 3 Zrotation Xrotation Yrotation
              JOINT rThumb1
              {
                OFFSET -1.2192 -0.487915 3.41376
                CHANNELS 3 Zrotation Xrotation Yrotation
                JOINT rThumb2
                {
                  OFFSET -3.37035 -0.52449 3.41376
                  CHANNELS 3 Zrotation Xrotation Yrotation
                  End Site
                  {
                    OFFSET -1.78271 -1.18214 1.43049
                  }
                }
              }
              JOINT rIndex1
              {
                OFFSET -7.75947 0.938293 5.60832
                CHANNELS 3 Zrotation Xrotation Yrotation
                JOINT rIndex2
                {
                  OFFSET -2.54057 -0.884171 1.56538
                  CHANNELS 3 Zrotation Xrotation Yrotation
                  End Site
                  {
                    OFFSET -1.62519 -0.234802 1.16502
                  }
                }
              }
              JOINT rMid1
              {
                OFFSET -8.24714 1.18213 3.41376
                CHANNELS 3 Zrotation Xrotation Yrotation
                JOINT rMid2
                {
                  OFFSET -3.10165 -0.590103 1.0647
                  CHANNELS 3 Zrotation Xrotation Yrotation
                  End Site
                  {
                    OFFSET -2.48547 -0.328903 0.83742
                  }
                }
              }
              JOINT rRing1
              {
                OFFSET -8.82822 0.546677 1.51678
                CHANNELS 3 Zrotation Xrotation Yrotation
                JOINT rRing2
                {
                  OFFSET -2.60934 -0.819778 -0.0198488
                  CHANNELS 3 Zrotation Xrotation Yrotation
                  End Site
                  {
                    OFFSET -2.33842 -0.294052 0.168128
                  }
                }
              }
              JOINT rPinky1
              {
                OFFSET -8.27202 -0.0477905 -0.4584
                CHANNELS 3 Zrotation Xrotation Yrotation
                JOINT rPinky2
                {
                  OFFSET -1.82734 -0.647385 -0.700984
                  CHANNELS 3 Zrotation Xrotation Yrotation
                  End Site
                  {
                    OFFSET -1.69225 -0.51767 -0.607171
                  }
                }
              }
            }
          }
        }
      }
      JOINT lCollar
      {
        OFFSET 2.68224 19.2634 -4.8768
        CHANNELS 3 Zrotation Xrotation Yrotation
        JOINT lShldr
        {
          OFFSET 8.77824 -1.95073 1.46304
          CHANNELS 3 Zrotation Xrotation Yrotation
          JOINT lForeArm
          {
            OFFSET 28.1742 -1.7115 0.48768
            CHANNELS 3 Zrotation Xrotation Yrotation
            JOINT lHand
            {
              OFFSET 22.5879 0.773209 7.07136
              CHANNELS 3 Zrotation Xrotation Yrotation
              JOINT lThumb1
              {
                OFFSET 1.2192 -0.487915 3.41376
                CHANNELS 3 Zrotation Xrotation Yrotation
                JOINT lThumb2
                {
                  OFFSET 3.37035 -0.52449 3.41376
                  CHANNELS 3 Zrotation Xrotation Yrotation
                  End Site
                  {
                    OFFSET 1.78271 -1.18214 1.43049
                  }
                }
              }
              JOINT lIndex1
              {
                OFFSET 7.75947 0.938293 5.60832
                CHANNELS 3 Zrotation Xrotation Yrotation
                JOINT lIndex2
                {
                  OFFSET 2.54057 -0.884171 1.56538
                  CHANNELS 3 Zrotation Xrotation Yrotation
                  End Site
                  {
                    OFFSET 1.62519 -0.234802 1.16502
                  }
                }
              }
              JOINT lMid1
              {
                OFFSET 8.24714 1.18213 3.41376
                CHANNELS 3 Zrotation Xrotation Yrotation
                JOINT lMid2
                {
                  OFFSET 3.10165 -0.590103 1.0647
                  CHANNELS 3 Zrotation Xrotation Yrotation
                  End Site
                  {
                    OFFSET 2.48547 -0.328903 0.83742
                  }
                }
              }
              JOINT lRing1
              {
                OFFSET 8.82822 0.546677 1.51678
                CHANNELS 3 Zrotation Xrotation Yrotation
                JOINT lRing2
                {
                  OFFSET 2.60934 -0.819778 -0.0198488
                  CHANNELS 3 Zrotation Xrotation Yrotation
                  End Site
                  {
                    OFFSET 2.33842 -0.294052 0.168128
                  }
                }
              }
              JOINT lPinky1
              {
                OFFSET 8.27202 -0.0477905 -0.4584
                CHANNELS 3 Zrotation Xrotation Yrotation
                JOINT lPinky2
                {
                  OFFSET 1.82734 -0.647385 -0.700984
                  CHANNELS 3 Zrotation Xrotation Yrotation
                  End Site
                  {
                    OFFSET 1.69225 -0.51767 -0.607171
                  }
                }
              }
            }
          }
        }
      }
    }
  }
  JOINT rButtock
  {
    OFFSET -8.77824 4.35084 1.2192
    CHANNELS 3 Zrotation Xrotation Yrotation
    JOINT rThigh
    {
      OFFSET 0 -1.70687 -2.19456
      CHANNELS 3 Zrotation Xrotation Yrotation
      JOINT rShin
      {
        OFFSET 0 -36.8199 0.73152
        CHANNELS 3 Zrotation Xrotation Yrotation
        JOINT rFoot
        {
          OFFSET 0.73152 -45.1104 -5.12064
          CHANNELS 3 Zrotation Xrotation Yrotation
          End Site
          {
            OFFSET -1.1221 -3.69964 12.103
          }
        }
      }
    }
  }
  JOINT lButtock
  {
    OFFSET 8.77824 4.35084 1.2192
    CHANNELS 3 Zrotation Xrotation Yrotation
    JOINT lThigh
    {
      OFFSET 0 -1.70687 -2.19456
      CHANNELS 3 Zrotation Xrotation Yrotation
      JOINT lShin
      {
        OFFSET 0 -36.8199 0.73152
        CHANNELS 3 Zrotation Xrotation Yrotation
        JOINT lFoot
        {
          OFFSET -0.73152 -45.1104 -5.12064
          CHANNELS 3 Zrotation Xrotation Yrotation
          End Site
          {
            OFFSET 1.1221 -3.69964 12.103
          }
        }
      }
    }
  }
}
MOTION
Frames:	8
Frame Time:	0.00833333
-1.24827 83.938 32.112 0.7892 18.8906 7.6557 6.21377 12.725 12.605 -0.753176 -6.40044 3.7339 -8.74009 7.34107 -12.7163 5.54104 -21.4627 -22.9075 -0.0 0.0 0.0 -0.0 0.0 0.0 -1.07835e-13 6.855e-14 3.80458e-13 44.2044 18.1179 4.3177 -27.9441 -40.1778 84.9519 -4.22251 -48.9392 -9.27621 -1.43414e-09 -1.91131e-09 -3.17586e-11 -2.46622e-09 -3.07231e-09 -1.06762e-10 -1.43413e-09 -1.91132e-09 -3.17718e-11 7.73091 5.47488 0.417314 -1.43414e-09 -1.91131e-09 -3.17597e-11 2.90554 0.965183 0.102902 -1.43414e-09 -1.91131e-09 -3.1756e-11 10.2786 0.731801 0.0259123 -1.43415e-09 -1.91131e-09 -3.17469e-11 2.22167 -0.733487 -0.20892 -1.07952e-13 6.85367e-14 3.80205e-13 -92.7696 38.8842 22.4846 25.863 -23.0869 -56.2358 0.332458 -16.1826 2.33747 5.61702e-10 -1.52823e-10 -9.06099e-10 9.78392e-10 -2.64e-10 -1.5544e-09 5.61698e-10 -1.52823e-10 -9.06092e-10 -7.73091 5.47488 -0.417314 5.61701e-10 -1.52822e-10 -9.06099e-10 -2.90554 0.965183 -0.102902 5.61695e-10 -1.52822e-10 -9.06101e-10 -10.2786 0.731801 -0.0259123 5.61704e-10 -1.52819e-10 -9.06105e-10 -2.22167 -0.733487 0.20892 -2.03217e-16 0.0 -3.88251e-19 -21.3552 -2.84026 -0.015451 0.0013869 -0.0846166 0.01223 0.39086 2.92263 -0.00691466 2.03217e-16 0.0 3.88251e-19 3.46137 -21.9293 -10.8381 0.0919421 23.71 -0.462627 -0.151691 -10.6135 1.43699
-1.23157 83.9493 32.0616 0.9133 18.2856 7.6311 5.99981 12.7777 12.9556 -0.811867 -6.42657 3.82345 -8.7997 7.11674 -12.7062 5.56649 -21.3877 -22.8491 -0.0 0.0 0.0 -0.0 0.0 0.0 -1.49434e-13 1.57446e-13 3.97619e-13 44.5337 18.184 6.46613 -28.3153 -38.1864 80.7293 -3.88862 -47.5019 -8.82307 -1.01377e-09 -1.70543e-09 1.15327e-11 -1.74452e-09 -2.78066e-09 -1.72815e-11 -1.01376e-09 -1.70545e-09 1.15231e-11 7.73091 5.47488 0.417314 -1.01377e-09 -1.70544e-09 1.15327e-11 2.90554 0.965183 0.102902 -1.01377e-09 -1.70544e-09 1.15343e-11 10.2786 0.731801 0.0259123 -1.01378e-09 -1.70543e-09 1.15422e-11 2.22167 -0.733487 -0.20892 -1.49548e-13 1.57428e-13 3.9742e-13 -92.6669 38.7568 22.0312 25.7418 -22.7895 -55.7207 0.327608 -16.0706 2.32037 6.09323e-10 3.35962e-11 -1.33034e-09 1.06647e-09 6.27492e-11 -2.28625e-09 6.09318e-10 3.35942e-11 -1.33033e-09 -7.73091 5.47488 -0.417314 6.09321e-10 3.35955e-11 -1.33034e-09 -2.90554 0.965183 -0.102902 6.09315e-10 3.35958e-11 -1.33034e-09 -10.2786 0.731801 -0.0259123 6.09326e-10 3.36002e-11 -1.33035e-09 -2.22167 -0.733487 0.20892 -2.03217e-16 0.0 -3.88251e-19 -21.3564 -2.84085 -0.0154434 0.00132675 -0.0905424 0.0117001 0.389921 2.92924 -0.00669969 2.03217e-16 0.0 3.88251e-19 3.54135 -21.8154 -10.5217 0.0913456 23.6774 -0.463691 -0.0610583 -10.7327 1.78815
-1.24313 83.9642 32.0535 0.9132 17.3788 7.3887 5.7942 12.9724 13.3683 -0.910906 -6.42815 3.93041 -8.89645 6.84528 -12.693 5.60853 -21.1193 -22.7699 -0.0 0.0 0.0 -0.0 0.0 0.0 -1.0153e-13 1.04946e-13 2.60993e-13 43.7774 18.4357 9.47612 -28.7256 -35.9549 74.9577 -3.67176 -46.5146 -8.52432 -4.26387e-11 -6.55693e-10 -1.92287e-10 -6.49102e-11 -1.13638e-09 -3.35465e-10 -4.26328e-11 -6.55707e-10 -1.92293e-10 7.73091 5.47488 0.417314 -4.26386e-11 -6.55699e-10 -1.92285e-10 2.90554 0.965183 0.102902 -4.26375e-11 -6.55695e-10 -1.92286e-10 10.2786 0.731801 0.0259123 -4.26452e-11 -6.5569e-10 -1.9228e-10 2.22167 -0.733487 -0.20892 -1.0161e-13 1.04921e-13 2.60842e-13 -92.3956 38.9989 21.4385 25.5605 -22.3576 -54.9666 0.31962 -15.8822 2.29166 2.99187e-10 -7.52736e-11 -5.75162e-10 5.22696e-10 -1.28479e-10 -9.86952e-10 2.99183e-10 -7.52756e-11 -5.75153e-10 -7.73091 5.47488 -0.417314 2.99186e-10 -7.52746e-11 -5.75161e-10 -2.90554 0.965183 -0.102902 2.9918e-10 -7.52745e-11 -5.75163e-10 -10.2786 0.731801 -0.0259123 2.99192e-10 -7.52701e-11 -5.75167e-10 -2.22167 -0.733487 0.20892 -2.03217e-16 0.0 -3.88251e-19 -21.357 -2.84836 -0.0155368 0.00121681 -0.096438 0.0107312 0.388241 2.94289 -0.00629132 2.03217e-16 0.0 3.88251e-19 3.61179 -21.4883 -10.1528 0.0907333 23.647 -0.465002 0.0399447 -10.8906 2.16192
-1.26091 83.9668 32.0673 0.9177 16.4118 7.1535 5.58049 13.2562 13.8458 -1.03905 -6.41476 4.05482 -9.01998 6.52358 -12.6711 5.65289 -20.6852 -22.6635 -0.0 0.0 0.0 -0.0 0.0 0.0 2.69761e-15 -2.8211e-14 1.15668e-14 42.1929 18.813 13.2611 -28.6581 -32.63 68.4365 -3.50863 -45.7537 -8.29858 1.43115e-09 1.06542e-09 -5.41381e-10 2.48566e-09 1.57849e-09 -8.86446e-10 1.43116e-09 1.06541e-09 -5.41384e-10 7.73091 5.47488 0.417314 1.43116e-09 1.06541e-09 -5.41377e-10 2.90554 0.965183 0.102902 1.43116e-09 1.06542e-09 -5.41382e-10 10.2786 0.731801 0.0259123 1.43115e-09 1.06542e-09 -5.41377e-10 2.22167 -0.733487 -0.20892 2.66996e-15 -2.8244e-14 1.14643e-14 -91.989 39.5002 20.7193 25.3118 -21.7855 -54.0126 0.309203 -15.629 2.25322 -2.44945e-10 -3.43262e-10 9.4142e-10 -4.34056e-10 -5.99353e-10 1.62353e-09 -2.44948e-10 -3.43262e-10 9.41433e-10 -7.73091 5.47488 -0.417314 -2.44945e-10 -3.43262e-10 9.41421e-10 -2.90554 0.965183 -0.102902 -2.44953e-10 -3.43262e-10 9.41422e-10 -10.2786 0.731801 -0.0259123 -2.44939e-10 -3.43259e-10 9.41417e-10 -2.22167 -0.733487 0.20892 -2.03217e-16 0.0 -3.88251e-19 -21.3575 -2.86091 -0.0156981 0.00106706 -0.102775 0.00941306 0.386125 2.96212 -0.00575092 2.03217e-16 0.0 3.88251e-19 3.6815 -20.9984 -9.72128 0.0900727 23.6167 -0.466578 0.156027 -11.0856 2.57594
-1.24956 83.9701 32.1109 0.9641 15.6916 6.8895 5.37394 13.5271 14.2883 -1.16569 -6.39032 4.16939 -9.13731 6.21579 -12.6451 5.71008 -20.1891 -22.5504 -0.0 0.0 0.0 -0.0 0.0 0.0 1.09958e-13 -1.73893e-13 -2.24534e-13 40.3568 19.192 16.9645 -27.8098 -28.6559 63.0829 -3.38683 -45.1742 -8.12929 2.71402e-09 2.83331e-09 -8.91834e-10 4.70742e-09 4.40485e-09 -1.44611e-09 2.71403e-09 2.83331e-09 -8.91835e-10 7.73091 5.47488 0.417314 2.71402e-09 2.8333e-09 -8.91829e-10 2.90554 0.965183 0.102902 2.71403e-09 2.83331e-09 -8.91837e-10 10.2786 0.731801 0.0259123 2.71402e-09 2.83331e-09 -8.91833e-10 2.22167 -0.733487 -0.20892 1.0998e-13 -1.73931e-13 -2.24599e-13 -91.5146 40.0994 19.9703 25.031 -21.165 -53.0202 0.297559 -15.3391 2.20934 -7.79062e-10 -6.3923e-10 2.45073e-09 -1.37365e-09 -1.11895e-09 4.22156e-09 -7.79062e-10 -6.39229e-10 2.45074e-09 -7.73091 5.47488 -0.417314 -7.79061e-10 -6.39229e-10 2.45073e-09 -2.90554 0.965183 -0.102902 -7.79069e-10 -6.3923e-10 2.45073e-09 -10.2786 0.731801 -0.0259123 -7.79055e-10 -6.39227e-10 2.45073e-09 -2.22167 -0.733487 0.20892 -2.03217e-16 0.0 -3.88251e-19 -21.3579 -2.87427 -0.0158713 0.000908445 -0.109482 0.00801835 0.38385 2.98255 -0.00517273 2.03217e-16 0.0 3.88251e-19 3.73337 -20.4717 -9.31424 0.0893983 23.5833 -0.467967 0.269005 -11.2768 2.96685
-1.23308 83.9736 32.1682 1.0136 15.0927 6.6293 5.19489 13.6852 14.5943 -1.26015 -6.35877 4.24683 -9.2157 5.98613 -12.6193 5.79204 -19.7352 -22.4497 -0.0 0.0 0.0 -0.0 0.0 0.0 1.6696e-13 -2.63968e-13 -3.21186e-13 38.905 19.5285 19.7153 -26.7008 -25.3857 59.8995 -3.29745 -44.7309 -8.0031 3.11238e-09 4.02339e-09 -1.09973e-09 5.40062e-09 6.38358e-09 -1.79034e-09 3.11238e-09 4.02339e-09 -1.09973e-09 7.73091 5.47488 0.417314 3.11238e-09 4.02338e-09 -1.09972e-09 2.90554 0.965183 0.102902 3.11238e-09 4.02339e-09 -1.09973e-09 10.2786 0.731801 0.0259123 3.11237e-09 4.02339e-09 -1.09973e-09 2.22167 -0.733487 -0.20892 1.67009e-13 -2.64004e-13 -3.21236e-13 -91.0534 40.6353 19.2959 24.7684 -20.6077 -52.1412 0.285746 -15.0406 2.16427 -1.05915e-09 -8.32039e-10 3.18408e-09 -1.86595e-09 -1.45636e-09 5.48348e-09 -1.05915e-09 -8.32037e-10 3.1841e-09 -7.73091 5.47488 -0.417314 -1.05915e-09 -8.32038e-10 3.18408e-09 -2.90554 0.965183 -0.102902 -1.05916e-09 -8.32039e-10 3.18409e-09 -10.2786 0.731801 -0.0259123 -1.05914e-09 -8.32037e-10 3.18408e-09 -2.22167 -0.733487 0.20892 -2.03217e-16 0.0 -3.88251e-19 -21.3585 -2.88425 -0.0160004 0.000772044 -0.116486 0.00681971 0.381691 2.9998 -0.00465103 2.03217e-16 0.0 3.88251e-19 3.75734 -20.0364 -9.01562 0.0887459 23.5435 -0.468717 0.358739 -11.4235 3.27089
-1.20864 83.9792 32.2228 1.0886 14.6331 6.4328 5.03758 13.6928 14.7412 -1.31951 -6.31067 4.28059 -9.23967 5.84471 -12.596 5.91685 -19.3138 -22.3666 -0.0 0.0 0.0 -0.0 0.0 0.0 1.45727e-13 -2.73629e-13 -1.88712e-13 38.0318 19.9282 21.3034 -25.9818 -23.5902 58.3515 -3.22625 -44.3577 -7.90027 2.06977e-09 4.46409e-09 -1.09679e-09 3.6043e-09 7.31065e-09 -1.82033e-09 2.06978e-09 4.46409e-09 -1.09679e-09 7.73091 5.47488 0.417314 2.06978e-09 4.46409e-09 -1.09679e-09 2.90554 0.965183 0.102902 2.06978e-09 4.46409e-09 -1.09679e-09 10.2786 0.731801 0.0259123 2.06977e-09 4.46409e-09 -1.09679e-09 2.22167 -0.733487 -0.20892 1.45764e-13 -2.7365e-13 -1.88779e-13 -90.5677 41.1354 18.6617 24.5293 -20.121 -51.3343 0.271954 -14.6894 2.11134 -9.56712e-10 -8.88066e-10 2.7121e-09 -1.68445e-09 -1.55142e-09 4.66982e-09 -9.56712e-10 -8.88063e-10 2.71212e-09 -7.73091 5.47488 -0.417314 -9.5671e-10 -8.88064e-10 2.71211e-09 -2.90554 0.965183 -0.102902 -9.5672e-10 -8.88065e-10 2.71211e-09 -10.2786 0.731801 -0.0259123 -9.56707e-10 -8.88063e-10 2.7121e-09 -2.22167 -0.733487 0.20892 -2.03217e-16 0.0 -3.88251e-19 -21.3592 -2.88968 -0.0160756 0.0006545 -0.12499 0.00578609 0.379227 3.01388 -0.00412647 2.03217e-16 0.0 3.88251e-19 3.74465 -19.703 -8.84311 0.0880227 23.4864 -0.468558 0.422993 -11.5175 3.48593
-1.17612 83.9857 32.2874 1.1795 14.3538 6.2965 4.89768 13.608 14.7808 -1.35834 -6.24743 4.28499 -9.22904 5.75965 -12.5723 6.07341 -18.8821 -22.2909 -0.0 0.0 0.0 -0.0 0.0 0.0 7.92674e-14 -2.41425e-13 8.69403e-14 37.4148 20.4255 22.1828 -25.703 -22.8876 57.5285 -3.17758 -44.0974 -7.82944 7.99554e-11 4.4902e-09 -9.69739e-10 1.72016e-10 7.68035e-09 -1.66864e-09 7.99589e-11 4.4902e-09 -9.69743e-10 7.73091 5.47488 0.417314 7.99577e-11 4.4902e-09 -9.69736e-10 2.90554 0.965183 0.102902 7.996e-11 4.4902e-09 -9.69741e-10 10.2786 0.731801 0.0259123 7.99525e-11 4.4902e-09 -9.69737e-10 2.22167 -0.733487 -0.20892 7.92686e-14 -2.41423e-13 8.68316e-14 -90.0331 41.6629 18.0324 24.2934 -19.6578 -50.5422 0.256722 -14.2877 2.05103 -6.23033e-10 -8.76802e-10 1.51956e-09 -1.09582e-09 -1.5268e-09 2.61535e-09 -6.23035e-10 -8.76797e-10 1.51957e-09 -7.73091 5.47488 -0.417314 -6.23032e-10 -8.76799e-10 1.51956e-09 -2.90554 0.965183 -0.102902 -6.23043e-10 -8.76799e-10 1.51956e-09 -10.2786 0.731801 -0.0259123 -6.23032e-10 -8.76798e-10 1.51955e-09 -2.22167 -0.733487 0.20892 -2.03217e-16 0.0 -3.88251e-19 -21.36 -2.89282 -0.0161251 0.000543076 -0.134625 0.00480667 0.376476 3.02673 -0.00357694 2.03217e-16 0.0 3.88251e-19 3.70683 -19.4124 -8.75179 0.0872467 23.4172 -0.467781 0.469971 -11.58 3.64072
